<svg height="512" viewBox="0 0 511.5 511.5" width="512"
    xmlns="http://www.w3.org/2000/svg">
    <g fill="red">
        <path d="m501.25 357.464-120.931-66.01v220.046h120.931zm-47 39.536v43h-30v-43z"/>
        <path d="m132.223 290.885-121.973 66.579v154.036h121.973zm-74.713 149.115v-43h30v43z"/>
        <path d="m331.725 147-60.975-61.197v-36.712h15.409v-30h-15.409v-19.091h-30v19.091h-15.228v30h15.228v36.712l-60.975 61.197z"/>
        <path d="m273.174 459.333c0-9.558-7.775-17.333-17.333-17.333s-17.333 7.776-17.333 17.333v52.167h34.667v-52.167z"/>
        <path d="m350.319 236.222h-188.096v275.278h46.284v-52.167c0-26.1 21.234-47.333 47.333-47.333s47.333 21.234 47.333 47.333v52.167h47.146zm-79.478 141.111h-30v-31.333h30zm-30-62v-47.333h30v47.333z"/>
        <path d="m122.25 177h267v29.222h-267z"/>
    </g>
</svg>